# xmcd
#
# Track frame offsets:
#	150
#	18655
#	34891
#	53710
#	72895
#	89388
#	107256
#	119006
#	137821
#	160252
#	177125
#	194200
#	210587
#	226508
#	244641
#	263015
#	277327
#
# Disc length: 3981 seconds
#
# Revision: 0
# Processed by: cddbd v1.5.2PL0 Copyright (c) Steve Scherf et al.
# Submitted via: dBpowerAMP V4.0
#
DISCID=f20f8b11
DTITLE=Forever Country - FOREVER COUNTRY
DYEAR=2002
DGENRE=Country
TTITLE0=Trace Adkins-/ No Thinkin' Thing (This Ain't)
TTITLE1=Clint Black-/ Shoes Your Wearin'
TTITLE2=Little Texas-/ My Love
TTITLE3=Mark Chesnutt-/ Almost Goodbye
TTITLE4=Mark Wills-/ Don't Laugh At Me 
TTITLE5=John Berry-/ Your Love Amazes Me
TTITLE6=Tracy Byrd-/ Holdin' Heaven
TTITLE7=Vince Gill-/ Pocket Full Of Gold
TTITLE8=Steve Wariner and Anita Cochran-/ What If I Said
TTITLE9=Paul Brandit-/ I Do
TTITLE10=Restless Heart-/ When She Cries
TTITLE11=Travis Tritt-/ Can't I Trust You With My Heart
TTITLE12=Kevin Sharp-/ Nobody Knows
TTITLE13=Bryan White-/ Rebecca Lynn
TTITLE14=Billy Ray Cyrus-/ In The Heart Of A Woman 
TTITLE15=Randy Travis-/ Forever Together
TTITLE16=The Raybon Brother-/ Butterfly Kisses
EXTD=FOREVER COUNTRY
EXTT0=
EXTT1=
EXTT2=
EXTT3=
EXTT4=
EXTT5=
EXTT6=
EXTT7=
EXTT8=
EXTT9=
EXTT10=
EXTT11=
EXTT12=
EXTT13=
EXTT14=
EXTT15=
EXTT16=
PLAYORDER=
